HIERARCHY
ROOT pelvis
{
  OFFSET 0 100 0
  CHANNELS 6 Xposition Yposition Zposition Zrotation Xrotation Yrotation
  JOINT pelvis_right_femur
  {
    OFFSET -10.78128 -3.44521 -0.5502486
    CHANNELS 3 Zrotation Xrotation Yrotation
    JOINT right_femur_tibia
    {
      OFFSET -0.8047443 -44.0398 -0.1307829
      CHANNELS 3 Zrotation Xrotation Yrotation
      JOINT right_tibia_foot
      {
        OFFSET 3.006224 -47.83518 -5
        CHANNELS 3 Zrotation Xrotation Yrotation
        End Site
        {
          OFFSET 0 -5 15
        }
      }
    }
  }
  JOINT pelvis_left_femur
  {
    OFFSET 10.78128 -3.44521 -0.5502486
    CHANNELS 3 Zrotation Xrotation Yrotation
    JOINT left_femur_tibia
    {
      OFFSET 0.8047443 -44.0398 -0.1307829
      CHANNELS 3 Zrotation Xrotation Yrotation
      JOINT left_tibia_foot
      {
        OFFSET -4.370144 -48.10324 -4.275266
        CHANNELS 3 Zrotation Xrotation Yrotation
        End Site
        {
          OFFSET 0 -5 15
        }
      }
    }
  }
  JOINT pelvis_spine1
  {
    OFFSET 0 6.468898 -3.129235
    CHANNELS 3 Zrotation Xrotation Yrotation
    JOINT spine1
    {
      OFFSET 0 23.15396 4.99043
      CHANNELS 3 Zrotation Xrotation Yrotation
      JOINT spine2
      {
        OFFSET 0 20.79997 -5.064912
        CHANNELS 3 Zrotation Xrotation Yrotation
        JOINT neck
        {
          OFFSET 0 14.38658 9.616178
          CHANNELS 3 Zrotation Xrotation Yrotation
          End Site
          {
            OFFSET 0 20 0
          }
        }
      }
      JOINT right_manubrium
      {
        OFFSET -5.722621 16.35077 3.967754
        CHANNELS 3 Zrotation Xrotation Yrotation
        JOINT right_clavicle
        {
          OFFSET -13.16364 1.694482 -4.693211
          CHANNELS 3 Zrotation Xrotation Yrotation
          JOINT right_humerus
          {
            OFFSET -28.5034 -0.3100689 -2.792744
            CHANNELS 3 Zrotation Xrotation Yrotation
            JOINT right_radius
            {
              OFFSET -25.15693 0.02248979 -1.271978
              CHANNELS 3 Zrotation Xrotation Yrotation
              End Site
              {
                OFFSET -15 0 0
              }
            }
          }
        }
      }
      JOINT left_manubrium
      {
        OFFSET 5.722621 16.35077 3.967754
        CHANNELS 3 Zrotation Xrotation Yrotation
        JOINT left_clavicle
        {
          OFFSET 13.16364 1.694482 -4.693211
          CHANNELS 3 Zrotation Xrotation Yrotation
          JOINT left_humerus
          {
            OFFSET 29.39168 -1.063119 -2.237045
            CHANNELS 3 Zrotation Xrotation Yrotation
            JOINT left_radius
            {
              OFFSET 24.59957 -0.9528479 0.9047498
              CHANNELS 3 Zrotation Xrotation Yrotation
              End Site
              {
                OFFSET 15 -0 -0
              }
            }
          }
        }
      }
    }
  }
}
MOTION
Frames: 20
Frame Time: 0.0416666666667
0 103.5113 0 1.930595 -1.139617 -0.248231 2.087949 -9.921898 9.285424 1.348234e-09 35.25818 -5.787204e-11 -5.285826 -19.38038 -2.903579 -7.897667 9.633862 -24.23457 -3.382909e-09 5.191884 -7.362985e-10 8.917228 -15.84974 28.51238 -4.52706 -5.361949 5.421701 2.28936 9.141359 -7.459208 1.253059 22.6798 6.627726 3.277011 -23.64953 8.744656 6.41134 -20.21792 11.48862 84.93851 35.62346 -19.13327 -2.397003e-10 5.631913e-11 16.46836 -6.838821 7.573196 3.994389 5.651765 -19.61654 -1.152282 -95.0268 29.65603 23.59487 8.618073e-10 -6.931929e-10 -16.75858 4.182458 18.62883 8.738017
0.289731 103.7483 1.400121 1.594428 -1.095894 -0.3273268 2.472719 -12.71354 9.102661 1.040183e-09 38.02347 -1.071044e-10 -5.263039 -18.20857 -3.22841 -7.668835 10.56731 -23.88805 -2.821325e-09 5.243603 -1.303881e-11 8.387413 -16.67016 27.36206 -4.307484 -4.810413 5.045452 2.31821 9.12911 -7.634738 1.218935 22.6099 6.749599 3.148533 -23.77103 8.970879 6.449604 -20.00286 11.51957 85.56021 35.52362 -19.43628 -1.694298e-10 8.22768e-11 16.53142 -6.816455 7.933401 4.057678 5.508292 -19.64209 -1.314607 -94.97403 29.74629 23.53132 5.649671e-10 -5.816999e-10 -16.72987 3.923662 18.29628 9.173559
0.5891862 103.985 2.876605 1.180237 -0.8348135 -0.2325739 3.023664 -15.86439 8.774367 5.090405e-10 38.85835 4.651929e-11 -5.361806 -16.78791 -3.361288 -7.329854 11.30354 -23.36058 -2.197624e-09 5.308814 4.146842e-10 7.665653 -17.60656 26.05933 -3.994997 -4.176372 4.644422 2.406943 9.088691 -7.808436 1.169854 22.4708 6.918812 3.091012 -23.99862 9.175603 6.433988 -19.75852 11.56566 86.06251 35.43958 -19.73227 -1.227584e-10 7.527137e-11 16.43823 -6.927566 8.272521 4.231038 5.517927 -19.76397 -1.435498 -94.8451 29.66707 23.34385 3.591361e-10 -4.699136e-10 -16.88042 3.795049 17.92668 9.42733
0.8882819 104.1449 4.523103 0.7387633 -0.3143587 -0.007144474 3.680288 -19.1838 8.321521 1.559745e-11 37.69125 2.006615e-10 -5.464063 -15.0458 -3.227436 -6.963524 11.92671 -22.71903 -1.438294e-09 5.483489 6.690734e-10 6.779491 -18.65584 24.71386 -3.622532 -3.566953 4.276349 2.534772 9.006577 -7.959725 1.122971 22.27308 7.146244 3.136963 -24.35864 9.370659 6.357691 -19.47435 11.60824 86.48512 35.33705 -20.09847 -8.610303e-11 6.042981e-11 16.15708 -7.222428 8.528172 4.482241 5.715929 -19.97893 -1.487383 -94.69359 29.4264 23.01739 2.120449e-10 -3.278366e-10 -17.30774 3.806688 17.54931 9.480675
1.172412 104.1399 6.365533 0.3366277 0.3780473 0.2861957 4.376482 -22.42774 7.832238 -4.146477e-10 34.52777 3.474565e-10 -5.526683 -13.13386 -2.830846 -6.637276 12.38247 -22.05591 -5.868913e-10 5.754234 7.161539e-10 5.893498 -19.76769 23.55913 -3.248026 -3.021171 3.990956 2.688602 8.913672 -8.066991 1.083133 22.01911 7.418614 3.297607 -24.79781 9.532988 6.237816 -19.17012 11.65093 86.669 35.22261 -20.4913 -6.55209e-11 3.782003e-11 15.68539 -7.66354 8.638858 4.754127 6.103926 -20.27128 -1.483137 -94.42868 29.05887 22.50761 1.557087e-10 -1.765227e-10 -18.03288 3.954878 17.19131 9.309805
1.431212 103.9285 8.446533 -0.05308573 1.197194 0.6016185 5.083607 -25.45807 7.352687 -7.518691e-10 30.12496 4.442577e-10 -5.59821 -11.12996 -2.293496 -6.320085 12.73909 -21.36816 2.606077e-10 6.158702 6.999306e-10 4.96459 -20.81724 22.49099 -2.872641 -2.556223 3.754516 2.865846 8.801756 -8.152561 1.050095 21.71393 7.703776 3.52516 -25.27823 9.662189 6.102317 -18.83994 11.68019 86.67612 35.14138 -20.88451 -6.083085e-11 1.349736e-11 15.08368 -8.174669 8.680249 5.040567 6.588658 -20.58403 -1.415928 -94.0919 28.60683 21.91905 1.498072e-10 -2.666543e-11 -18.86052 4.163663 16.83169 9.027104
1.656083 103.5032 10.8727 -0.4442926 2.072627 0.9086164 5.735272 -28.01352 6.842165 -8.869512e-10 25.06377 4.070124e-10 -5.709657 -9.273515 -1.761529 -5.965438 13.08319 -20.59246 1.010742e-09 6.787105 6.868513e-10 3.890092 -21.63567 21.34599 -2.492097 -2.222512 3.54235 3.048423 8.636505 -8.237251 1.033656 21.40882 7.942891 3.746386 -25.71305 9.747397 5.92576 -18.46684 11.66393 86.71517 35.05128 -21.30098 -6.299655e-11 -5.872058e-12 14.40112 -8.735129 8.749515 5.341495 7.088406 -20.89457 -1.278524 -93.72172 28.09357 21.24174 1.495922e-10 1.247285e-10 -19.69846 4.40093 16.47396 8.690153
1.849158 102.9346 13.73184 -0.8582256 2.858997 1.214866 6.284349 -29.94104 6.364259 -8.960505e-10 20.85344 3.063336e-10 -5.904146 -7.723486 -1.412864 -5.560938 13.47799 -19.76331 1.531743e-09 7.879721 7.102475e-10 2.631694 -22.02446 19.98679 -2.107004 -1.99423 3.306799 3.216395 8.428927 -8.339046 1.026484 21.15432 8.096495 3.883179 -26.03537 9.794617 5.770138 -18.04301 11.60665 86.90792 35.00921 -21.70363 -6.567506e-11 -2.037953e-11 13.72724 -9.208064 8.934362 5.628231 7.438604 -21.12227 -1.099086 -93.38584 27.63241 20.61963 1.203236e-10 2.519394e-10 -20.27255 4.565189 16.10928 8.466378
2.019588 102.3552 17.08828 -1.301955 3.482413 1.53924 6.702173 -31.02932 5.927007 -8.220081e-10 18.25143 2.156232e-10 -6.244868 -6.610708 -1.290575 -5.104199 13.9068 -18.91315 1.716066e-09 9.679529 5.825873e-10 1.228222 -21.74883 18.33667 -1.705449 -1.893231 3.03922 3.358657 8.204009 -8.458466 1.010876 20.95025 8.132467 3.894618 -26.20976 9.774364 5.673811 -17.58216 11.51516 87.19127 35.04039 -22.04005 -6.730558e-11 -4.178105e-11 13.08736 -9.462452 9.248431 5.859583 7.525287 -21.22937 -0.9081784 -93.00966 27.26338 20.15187 8.635871e-11 3.266125e-10 -20.43999 4.656485 15.76011 8.383621
2.191418 101.9667 21.00115 -1.772817 3.873253 1.91035 6.975493 -31.047 5.552563 -6.828037e-10 18.04684 1.655741e-10 -6.762752 -5.777118 -1.393522 -4.629665 14.21845 -18.03736 1.557597e-09 12.65705 3.537159e-10 -0.2647306 -20.61602 16.40418 -1.287225 -1.911684 2.754036 3.456841 8.018801 -8.582488 0.9705839 20.79568 8.055147 3.784096 -26.24147 9.670719 5.691708 -17.09477 11.41767 87.51731 35.19655 -22.25736 -6.230621e-11 -6.616651e-11 12.48845 -9.495478 9.707867 6.043825 7.257228 -21.18026 -0.732494 -92.60769 26.98709 19.98627 3.520859e-11 3.352452e-10 -20.0174 4.650703 15.40413 8.49928
2.385502 101.9168 25.52324 -2.250433 4.01381 2.306431 7.234132 -29.87772 5.26816 -4.641936e-10 19.09186 1.242245e-10 -7.385891 -5.3532 -1.625491 -4.120075 14.02716 -17.06077 1.331789e-09 17.24853 2.276182e-10 -1.820981 -18.66572 14.39653 -0.8120637 -2.009425 2.558763 3.504909 7.908393 -8.660844 0.9300843 20.71107 7.867326 3.587874 -26.15371 9.486428 5.753338 -16.65592 11.35039 87.89726 35.32798 -22.34434 -4.512458e-11 -8.545532e-11 12.0089 -9.424346 10.27508 6.180426 6.732299 -21.02852 -0.5752823 -92.38419 26.72434 20.19398 -2.443069e-11 3.054473e-10 -19.15946 4.558987 15.05463 8.764665
2.583973 102.2897 30.4585 -2.655847 3.77277 2.647883 7.621706 -27.96796 5.18587 -4.450745e-10 20.29016 3.032652e-10 -8.121338 -5.610753 -1.916145 -3.602353 13.06855 -16.02814 1.328794e-09 23.83426 -1.449182e-10 -3.148564 -16.11224 12.64401 -0.2879093 -2.015118 2.517809 3.526728 7.984293 -8.676204 0.8681739 20.69363 7.596507 3.356779 -25.92616 9.188426 5.868854 -16.29765 11.39979 88.02915 35.4352 -22.32898 -2.261008e-11 -1.339824e-10 11.55216 -9.149898 10.81015 6.129128 6.047391 -20.90703 -0.5343036 -92.0771 26.49673 20.53448 4.284148e-11 2.014393e-10 -18.27086 4.482012 14.75272 9.004519
2.775258 103.0853 35.66591 -2.84228 3.149439 2.838689 7.940669 -24.75373 5.104428 -3.458218e-10 20.92647 4.256707e-10 -8.746978 -6.545089 -2.164243 -3.153399 10.61565 -14.76571 1.8335e-09 31.94055 -2.93326e-10 -4.175126 -13.28067 11.50702 0.1538111 -1.90768 2.781184 3.445979 8.216356 -8.54638 0.8112697 20.86719 7.287067 3.159829 -25.53645 8.795452 5.930881 -16.09346 11.57058 88.03885 35.48934 -22.0658 4.04384e-11 -1.546625e-10 11.26697 -9.197172 11.28225 6.096938 5.36731 -20.85366 -0.5519355 -91.9754 26.23096 20.90035 9.960335e-11 1.198839e-10 -17.52354 4.411312 14.46712 9.187669
2.939471 104.1934 40.86116 -2.699165 2.176367 2.815426 8.036127 -20.53966 4.948015 -2.866761e-10 20.7339 5.482698e-10 -9.105937 -7.980181 -2.218735 -2.840404 6.462295 -13.38208 2.925817e-09 39.99511 -6.15321e-10 -4.662431 -10.7709 11.28755 0.3717165 -1.591306 3.367843 3.234185 8.607134 -8.229867 0.7409451 21.21881 7.031421 3.073405 -25.00267 8.338424 5.929828 -16.12121 11.87806 87.62467 35.55386 -21.35933 1.374183e-10 -1.535537e-10 11.24174 -9.785138 11.56314 6.207249 4.844493 -20.88736 -0.651345 -91.93793 25.92703 21.12381 1.776811e-10 6.794976e-11 -17.10789 4.384907 14.18708 9.225986
3.056625 105.432 45.80318 -2.269944 1.105909 2.586255 7.817888 -16.00782 4.651441 -2.961526e-10 19.59688 7.125326e-10 -9.132302 -9.617106 -2.012931 -2.648931 1.4325 -12.09555 4.420854e-09 45.99833 -1.723133e-09 -4.629093 -8.998221 11.84181 0.3184288 -1.171783 4.133886 2.925491 9.027603 -7.777788 0.6540125 21.63935 6.875766 3.105606 -24.38429 7.872919 5.857258 -16.33933 12.22719 86.69357 35.62615 -20.24124 2.345342e-10 -1.565729e-10 11.42866 -10.85399 11.60373 6.508173 4.580658 -20.97645 -0.7867599 -91.72787 25.59546 21.02763 3.379248e-10 3.028781e-11 -17.11071 4.450148 13.93049 9.051956
3.160241 106.6381 50.50938 -1.67765 0.2172281 2.209811 7.274153 -11.01369 4.10972 -8.666284e-11 18.15447 6.551237e-10 -8.839115 -10.99154 -1.463247 -2.5203 -4.233961 -10.87284 5.98267e-09 49.22174 -2.958664e-09 -4.290107 -7.894207 12.83658 0.03234708 -0.819187 5.020025 2.514013 9.359148 -7.209821 0.5597673 22.0729 6.829877 3.240723 -23.82183 7.44994 5.679382 -16.76925 12.53758 85.48378 35.68353 -18.67183 3.467243e-10 -1.213422e-10 11.96551 -12.50581 11.4796 7.160887 4.537455 -21.02232 -0.8504975 -91.66156 25.1644 20.97034 4.188567e-10 7.907782e-11 -17.19142 4.559576 13.67763 8.787098
3.286472 107.6098 55.07821 -1.074102 -0.4699902 1.733672 6.587624 -6.206279 3.490725 1.863139e-10 16.25825 4.512339e-10 -8.238836 -12.2457 -0.8386447 -2.278207 -9.72027 -9.688517 6.92622e-09 49.18443 -3.687907e-09 -3.87073 -7.461386 13.97674 -0.3638724 -0.5448129 5.861212 2.074829 9.534613 -6.628654 0.4967999 22.41446 6.816353 3.362791 -23.24558 7.107307 5.353076 -17.36599 12.73478 84.17883 35.52831 -16.78799 4.341361e-10 -6.880507e-11 12.92681 -14.48208 11.37175 8.086422 4.679607 -20.97637 -0.8440934 -91.69711 24.62762 20.962 4.201449e-10 1.816147e-10 -17.21632 4.576531 13.37055 8.576049
3.486001 108.1154 59.53366 -0.5429233 -0.9246292 1.231147 5.754443 -2.041354 2.901731 1.990345e-10 14.26559 3.15434e-10 -7.435623 -13.66503 -0.29101 -1.846617 -14.67086 -8.617317 6.625879e-09 44.64749 -3.892712e-09 -3.29087 -7.785009 15.15514 -0.8500437 -0.3033682 6.516142 1.676779 9.517946 -6.116367 0.4401806 22.58032 6.810664 3.393794 -22.63715 6.859017 4.933798 -18.18302 12.79842 82.67069 35.26607 -14.49925 4.483938e-10 -4.783847e-11 14.4755 -16.50897 11.37168 9.286634 4.944348 -20.77823 -0.7704795 -91.74632 24.07001 21.1305 4.260618e-10 2.629467e-10 -16.98917 4.412049 12.99564 8.541053
3.804261 108.0866 63.99074 -0.170045 -1.102028 0.7652062 4.889653 1.464422 2.41002 6.836885e-11 12.7486 2.226049e-10 -6.634005 -15.10156 0.08539319 -1.24974 -18.55203 -7.663345 5.337373e-09 37.22673 -3.880361e-09 -2.692136 -8.354093 16.06599 -1.309751 -0.2296733 6.936761 1.372482 9.359284 -5.757761 0.3805382 22.53916 6.770776 3.31263 -22.06642 6.676026 4.5066 -19.10417 12.73249 81.2374 34.95633 -12.17693 3.963502e-10 -6.16115e-11 16.35292 -18.30209 11.55562 10.59791 5.178579 -20.4648 -0.6361254 -91.79886 23.50219 21.58344 4.37216e-10 3.005228e-10 -16.43759 4.110644 12.58802 8.698426
4.263726 107.5447 68.54967 0.06105229 -1.078142 0.382287 4.038377 4.280179 2.065578 -1.24563e-10 11.98537 1.78336e-10 -5.878323 -16.51116 0.252073 -0.614675 -21.14876 -6.896203 3.504646e-09 28.40268 -4.138806e-09 -2.148046 -8.937929 16.65019 -1.701576 -0.343782 7.142103 1.163928 9.112225 -5.561906 0.3233899 22.33783 6.687026 3.131248 -21.53722 6.548666 4.123929 -20.00978 12.56296 80.02311 34.61996 -10.08806 2.980422e-10 -1.088945e-10 18.30817 -19.72311 11.90121 11.85325 5.325174 -20.08215 -0.4726048 -91.79125 22.98661 22.20056 4.741094e-10 2.854086e-10 -15.69263 3.719568 12.18267 9.010703
